26FGalaxySans-Regular.ufo
<glyph name="exclam" format="2">
  <advance width="400"/>
  <unicode hex="0021"/>
  <outline>
    <contour>
      <point x="200" y="359" type="move"/>
      <point x="200" y="1394" type="line"/>
    </contour>
    <contour>
      <point x="200" y="0" type="curve" smooth="yes"/>
      <point x="241" y="0"/>
      <point x="275" y="34"/>
      <point x="275" y="75" type="curve" smooth="yes"/>
      <point x="275" y="116"/>
      <point x="241" y="150"/>
      <point x="200" y="150" type="curve" smooth="yes"/>
      <point x="159" y="150"/>
      <point x="125" y="116"/>
      <point x="125" y="75" type="curve" smooth="yes"/>
      <point x="125" y="34"/>
      <point x="159" y="0"/>
    </contour>
  </outline>
</glyph>
<glyph name="numbersign" format="2">
  <advance width="1255"/>
  <unicode hex="0023"/>
  <outline>
    <contour>
      <point x="836" y="1394" type="move"/>
      <point x="836" y="6" type="line"/>
    </contour>
    <contour>
      <point x="420" y="1394" type="move"/>
      <point x="420" y="6" type="line"/>
    </contour>
    <contour>
      <point x="1070" y="893" type="curve" smooth="yes"/>
      <point x="1103" y="893"/>
      <point x="1130" y="920"/>
      <point x="1130" y="953" type="curve" smooth="yes"/>
      <point x="1130" y="986"/>
      <point x="1103" y="1013"/>
      <point x="1070" y="1013" type="curve" smooth="yes"/>
      <point x="1037" y="1013"/>
      <point x="1010" y="986"/>
      <point x="1010" y="953" type="curve" smooth="yes"/>
      <point x="1010" y="920"/>
      <point x="1037" y="893"/>
    </contour>
    <contour>
      <point x="1070" y="507" type="curve" smooth="yes"/>
      <point x="1037" y="507"/>
      <point x="1010" y="480"/>
      <point x="1010" y="447" type="curve" smooth="yes"/>
      <point x="1010" y="414"/>
      <point x="1037" y="387"/>
      <point x="1070" y="387" type="curve" smooth="yes"/>
      <point x="1103" y="387"/>
      <point x="1130" y="414"/>
      <point x="1130" y="447" type="curve" smooth="yes"/>
      <point x="1130" y="480"/>
      <point x="1103" y="507"/>
    </contour>
    <contour>
      <point x="185" y="893" type="curve" smooth="yes"/>
      <point x="218" y="893"/>
      <point x="245" y="920"/>
      <point x="245" y="953" type="curve" smooth="yes"/>
      <point x="245" y="986"/>
      <point x="218" y="1013"/>
      <point x="185" y="1013" type="curve" smooth="yes"/>
      <point x="152" y="1013"/>
      <point x="125" y="986"/>
      <point x="125" y="953" type="curve" smooth="yes"/>
      <point x="125" y="920"/>
      <point x="152" y="893"/>
    </contour>
    <contour>
      <point x="185" y="507" type="curve" smooth="yes"/>
      <point x="152" y="507"/>
      <point x="125" y="480"/>
      <point x="125" y="447" type="curve" smooth="yes"/>
      <point x="125" y="414"/>
      <point x="152" y="387"/>
      <point x="185" y="387" type="curve" smooth="yes"/>
      <point x="218" y="387"/>
      <point x="245" y="414"/>
      <point x="245" y="447" type="curve" smooth="yes"/>
      <point x="245" y="480"/>
      <point x="218" y="507"/>
    </contour>
  </outline>
</glyph>
<glyph name="percent" format="2">
  <advance width="1495"/>
  <unicode hex="0025"/>
  <outline>
    <contour>
      <point x="260" y="16" type="move"/>
      <point x="1235" y="1384" type="line"/>
    </contour>
    <contour>
      <point x="475" y="1280" type="move"/>
      <point x="348" y="1280"/>
      <point x="245" y="1177"/>
      <point x="245" y="1050" type="curve" smooth="yes"/>
      <point x="245" y="923"/>
      <point x="348" y="820"/>
      <point x="475" y="820" type="curve"/>
    </contour>
    <contour>
      <point x="1020" y="120" type="move"/>
      <point x="1147" y="120"/>
      <point x="1250" y="223"/>
      <point x="1250" y="350" type="curve" smooth="yes"/>
      <point x="1250" y="477"/>
      <point x="1147" y="580"/>
      <point x="1020" y="580" type="curve"/>
    </contour>
  </outline>
</glyph>
<glyph name="ampersand" format="2">
  <advance width="1078"/>
  <unicode hex="0026"/>
  <outline>
    <contour>
      <point x="953" y="880" type="move"/>
      <point x="953" y="0" type="line"/>
    </contour>
    <contour>
      <point x="683" y="760" type="move"/>
      <point x="543" y="760" type="line" smooth="yes"/>
      <point x="399" y="760"/>
      <point x="283" y="876"/>
      <point x="283" y="1020" type="curve" smooth="yes"/>
      <point x="283" y="1164"/>
      <point x="399" y="1280"/>
      <point x="543" y="1280" type="curve" smooth="yes"/>
      <point x="947" y="1280" type="line"/>
    </contour>
    <contour>
      <point x="693" y="640" type="move"/>
      <point x="443" y="640" type="line" smooth="yes"/>
      <point x="299" y="640"/>
      <point x="183" y="524"/>
      <point x="183" y="380" type="curve" smooth="yes"/>
      <point x="183" y="236"/>
      <point x="299" y="120"/>
      <point x="443" y="120" type="curve" smooth="yes"/>
      <point x="703" y="120" type="line"/>
    </contour>
  </outline>
</glyph>
<glyph name="quotesingle" format="2">
  <advance width="370"/>
  <unicode hex="0027"/>
  <outline>
    <contour>
      <point x="185" y="1171" type="move"/>
      <point x="185" y="1594" type="line"/>
    </contour>
  </outline>
</glyph>
<glyph name="asterisk" format="2">
  <advance width="816"/>
  <unicode hex="002A"/>
  <outline>
    <contour>
      <point x="678" y="926" type="move"/>
      <point x="138" y="1238" type="line"/>
    </contour>
    <contour>
      <point x="407" y="885" type="curve" smooth="yes"/>
      <point x="374" y="885"/>
      <point x="347" y="858"/>
      <point x="347" y="825" type="curve" smooth="yes"/>
      <point x="347" y="792"/>
      <point x="374" y="765"/>
      <point x="407" y="765" type="curve" smooth="yes"/>
      <point x="440" y="765"/>
      <point x="467" y="792"/>
      <point x="467" y="825" type="curve" smooth="yes"/>
      <point x="467" y="858"/>
      <point x="440" y="885"/>
    </contour>
    <contour>
      <point x="185" y="1013" type="curve" smooth="yes"/>
      <point x="152" y="1013"/>
      <point x="125" y="986"/>
      <point x="125" y="953" type="curve" smooth="yes"/>
      <point x="125" y="920"/>
      <point x="152" y="893"/>
      <point x="185" y="893" type="curve" smooth="yes"/>
      <point x="218" y="893"/>
      <point x="245" y="920"/>
      <point x="245" y="953" type="curve" smooth="yes"/>
      <point x="245" y="986"/>
      <point x="218" y="1013"/>
    </contour>
    <contour>
      <point x="408" y="1400" type="curve" smooth="yes"/>
      <point x="375" y="1400"/>
      <point x="348" y="1373"/>
      <point x="348" y="1340" type="curve" smooth="yes"/>
      <point x="348" y="1307"/>
      <point x="375" y="1280"/>
      <point x="408" y="1280" type="curve" smooth="yes"/>
      <point x="441" y="1280"/>
      <point x="468" y="1307"/>
      <point x="468" y="1340" type="curve" smooth="yes"/>
      <point x="468" y="1373"/>
      <point x="441" y="1400"/>
    </contour>
    <contour>
      <point x="631" y="1271" type="curve" smooth="yes"/>
      <point x="598" y="1271"/>
      <point x="571" y="1244"/>
      <point x="571" y="1211" type="curve" smooth="yes"/>
      <point x="571" y="1178"/>
      <point x="598" y="1151"/>
      <point x="631" y="1151" type="curve" smooth="yes"/>
      <point x="664" y="1151"/>
      <point x="691" y="1178"/>
      <point x="691" y="1211" type="curve" smooth="yes"/>
      <point x="691" y="1244"/>
      <point x="664" y="1271"/>
    </contour>
  </outline>
</glyph>
<glyph name="plus" format="2">
  <advance width="1007"/>
  <unicode hex="002B"/>
  <outline>
    <contour>
      <point x="504" y="1138" type="move"/>
      <point x="504" y="263" type="line"/>
    </contour>
    <contour>
      <point x="942" y="700" type="move"/>
      <point x="679" y="700" type="line"/>
    </contour>
    <contour>
      <point x="329" y="700" type="move"/>
      <point x="66" y="700" type="line"/>
    </contour>
  </outline>
</glyph>
<glyph name="comma" format="2">
  <advance width="399"/>
  <unicode hex="002C"/>
  <outline>
    <contour>
      <point x="253" y="218" type="move"/>
      <point x="146" y="-185" type="line"/>
    </contour>
  </outline>
</glyph>
<glyph name="hyphen" format="2">
  <advance width="711"/>
  <unicode hex="002D"/>
  <outline>
    <contour>
      <point x="131" y="700" type="move"/>
      <point x="580" y="700" type="line"/>
    </contour>
  </outline>
</glyph>
<glyph name="zero" format="2">
  <advance width="896"/>
  <unicode hex="0030"/>
  <outline>
    <contour>
      <point x="299" y="601" type="move"/>
      <point x="597" y="799" type="line"/>
    </contour>
    <contour>
      <point x="676" y="1048" type="move"/>
      <point x="676" y="1174"/>
      <point x="574" y="1276"/>
      <point x="448" y="1276" type="curve" smooth="yes"/>
      <point x="322" y="1276"/>
      <point x="220" y="1174"/>
      <point x="220" y="1048" type="curve" smooth="yes"/>
      <point x="220" y="799" type="line"/>
    </contour>
    <contour>
      <point x="220" y="352" type="move"/>
      <point x="220" y="226"/>
      <point x="322" y="124"/>
      <point x="448" y="124" type="curve" smooth="yes"/>
      <point x="574" y="124"/>
      <point x="676" y="226"/>
      <point x="676" y="352" type="curve" smooth="yes"/>
      <point x="676" y="601" type="line"/>
    </contour>
  </outline>
</glyph>
<glyph name="one" format="2">
  <advance width="896"/>
  <unicode hex="0031"/>
  <outline>
    <contour>
      <point x="231" y="1138" type="move"/>
      <point x="528" y="1342" type="line"/>
    </contour>
    <contour>
      <point x="528" y="440" type="move"/>
      <point x="528" y="6" type="line"/>
    </contour>
    <contour>
      <point x="528" y="1394" type="move"/>
      <point x="528" y="840" type="line"/>
    </contour>
  </outline>
</glyph>
<glyph name="two" format="2">
  <advance width="896"/>
  <unicode hex="0032"/>
  <outline>
    <contour>
      <point x="790" y="0" type="move"/>
      <point x="106" y="0" type="line"/>
    </contour>
    <contour>
      <point x="497" y="501" type="move"/>
      <point x="121" y="20" type="line"/>
    </contour>
    <contour>
      <point x="678" y="1046" type="move"/>
      <point x="678" y="1173"/>
      <point x="575" y="1276"/>
      <point x="448" y="1276" type="curve" smooth="yes"/>
      <point x="321" y="1276"/>
      <point x="218" y="1173"/>
      <point x="218" y="1046" type="curve"/>
    </contour>
  </outline>
</glyph>
<glyph name="three" format="2">
  <advance width="896"/>
  <unicode hex="0033"/>
  <outline>
    <contour>
      <point x="450" y="820" type="move"/>
      <point x="577" y="820"/>
      <point x="680" y="923"/>
      <point x="680" y="1050" type="curve" smooth="yes"/>
      <point x="680" y="1177"/>
      <point x="577" y="1280"/>
      <point x="450" y="1280" type="curve" smooth="yes"/>
      <point x="323" y="1280"/>
      <point x="220" y="1177"/>
      <point x="220" y="1050" type="curve"/>
    </contour>
    <contour>
      <point x="218" y="354" type="move"/>
      <point x="218" y="227"/>
      <point x="321" y="124"/>
      <point x="448" y="124" type="curve" smooth="yes"/>
      <point x="575" y="124"/>
      <point x="678" y="227"/>
      <point x="678" y="354" type="curve" smooth="yes"/>
    </contour>
  </outline>
</glyph>
<glyph name="four" format="2">
  <advance width="896"/>
  <unicode hex="0034"/>
  <outline>
    <contour>
      <point x="570" y="1389" type="move"/>
      <point x="125" y="400" type="line"/>
    </contour>
    <contour>
      <point x="735" y="0" type="move"/>
      <point x="735" y="1000" type="line"/>
    </contour>
    <contour>
      <point x="86" y="400" type="move"/>
      <point x="475" y="400" type="line"/>
    </contour>
  </outline>
</glyph>
<glyph name="five" format="2">
  <advance width="896"/>
  <unicode hex="0035"/>
  <outline>
    <contour>
      <point x="807" y="1400" type="move"/>
      <point x="107" y="1400" type="line"/>
    </contour>
    <contour>
      <point x="101" y="1338" type="move"/>
      <point x="101" y="930" type="line"/>
    </contour>
    <contour>
      <point x="218" y="354" type="move"/>
      <point x="218" y="227"/>
      <point x="321" y="124"/>
      <point x="448" y="124" type="curve" smooth="yes"/>
      <point x="575" y="124"/>
      <point x="678" y="227"/>
      <point x="678" y="354" type="curve" smooth="yes"/>
      <point x="678" y="454" type="line" smooth="yes"/>
      <point x="678" y="581"/>
      <point x="575" y="684"/>
      <point x="448" y="684" type="curve" smooth="yes"/>
    </contour>
  </outline>
</glyph>
<glyph name="six" format="2">
  <advance width="896"/>
  <unicode hex="0036"/>
  <outline>
    <contour>
      <point x="356" y="910" type="move"/>
      <point x="606" y="1386" type="line"/>
    </contour>
    <contour>
      <point x="446" y="120" type="curve" smooth="yes"/>
      <point x="573" y="120"/>
      <point x="676" y="223"/>
      <point x="676" y="350" type="curve" smooth="yes"/>
      <point x="676" y="477"/>
      <point x="573" y="580"/>
      <point x="446" y="580" type="curve" smooth="yes"/>
      <point x="319" y="580"/>
      <point x="216" y="477"/>
      <point x="216" y="350" type="curve" smooth="yes"/>
      <point x="216" y="223"/>
      <point x="319" y="120"/>
    </contour>
  </outline>
</glyph>
<glyph name="seven" format="2">
  <advance width="896"/>
  <unicode hex="0037"/>
  <outline>
    <contour>
      <point x="111" y="1400" type="move"/>
      <point x="491" y="1400" type="line"/>
    </contour>
    <contour>
      <point x="761" y="1391" type="move"/>
      <point x="264" y="9" type="line"/>
    </contour>
  </outline>
</glyph>
<glyph name="eight" format="2">
  <advance width="896"/>
  <unicode hex="0038"/>
  <outline>
    <contour>
      <point x="156" y="409" type="move"/>
      <point x="156" y="569"/>
      <point x="286" y="699"/>
      <point x="446" y="699" type="curve" smooth="yes"/>
      <point x="606" y="699"/>
      <point x="736" y="829"/>
      <point x="736" y="989" type="curve" smooth="yes"/>
    </contour>
    <contour>
      <point x="448" y="1280" type="move"/>
      <point x="321" y="1280"/>
      <point x="218" y="1177"/>
      <point x="218" y="1050" type="curve"/>
    </contour>
    <contour>
      <point x="448" y="120" type="move"/>
      <point x="575" y="120"/>
      <point x="678" y="223"/>
      <point x="678" y="350" type="curve"/>
    </contour>
  </outline>
</glyph>
<glyph name="nine" format="2">
  <advance width="896"/>
  <unicode hex="0039"/>
  <outline>
    <contour>
      <point x="540" y="490" type="move"/>
      <point x="290" y="14" type="line"/>
    </contour>
    <contour>
      <point x="450" y="1280" type="curve" smooth="yes"/>
      <point x="323" y="1280"/>
      <point x="220" y="1177"/>
      <point x="220" y="1050" type="curve" smooth="yes"/>
      <point x="220" y="923"/>
      <point x="323" y="820"/>
      <point x="450" y="820" type="curve" smooth="yes"/>
      <point x="577" y="820"/>
      <point x="680" y="923"/>
      <point x="680" y="1050" type="curve" smooth="yes"/>
      <point x="680" y="1177"/>
      <point x="577" y="1280"/>
    </contour>
  </outline>
</glyph>
<glyph name="colon" format="2">
  <advance width="350"/>
  <unicode hex="003A"/>
  <outline>
    <contour>
      <point x="175" y="945" type="curve" smooth="yes"/>
      <point x="216" y="945"/>
      <point x="250" y="979"/>
      <point x="250" y="1020" type="curve" smooth="yes"/>
      <point x="250" y="1061"/>
      <point x="216" y="1095"/>
      <point x="175" y="1095" type="curve" smooth="yes"/>
      <point x="134" y="1095"/>
      <point x="100" y="1061"/>
      <point x="100" y="1020" type="curve" smooth="yes"/>
      <point x="100" y="979"/>
      <point x="134" y="945"/>
    </contour>
    <contour>
      <point x="175" y="305" type="curve" smooth="yes"/>
      <point x="216" y="305"/>
      <point x="250" y="339"/>
      <point x="250" y="380" type="curve" smooth="yes"/>
      <point x="250" y="421"/>
      <point x="216" y="455"/>
      <point x="175" y="455" type="curve" smooth="yes"/>
      <point x="134" y="455"/>
      <point x="100" y="421"/>
      <point x="100" y="380" type="curve" smooth="yes"/>
      <point x="100" y="339"/>
      <point x="134" y="305"/>
    </contour>
  </outline>
</glyph>
<glyph name="semicolon" format="2">
  <advance width="414"/>
  <unicode hex="003B"/>
  <outline>
    <contour>
      <point x="253" y="218" type="move"/>
      <point x="146" y="-185" type="line"/>
    </contour>
    <contour>
      <point x="239" y="731" type="curve" smooth="yes"/>
      <point x="280" y="731"/>
      <point x="314" y="765"/>
      <point x="314" y="806" type="curve" smooth="yes"/>
      <point x="314" y="847"/>
      <point x="280" y="881"/>
      <point x="239" y="881" type="curve" smooth="yes"/>
      <point x="198" y="881"/>
      <point x="164" y="847"/>
      <point x="164" y="806" type="curve" smooth="yes"/>
      <point x="164" y="765"/>
      <point x="198" y="731"/>
    </contour>
  </outline>
</glyph>
<glyph name="less" format="2">
  <advance width="1299"/>
  <unicode hex="003C"/>
  <outline>
    <contour>
      <point x="136" y="704" type="move"/>
      <point x="1163" y="1191" type="line"/>
    </contour>
    <contour>
      <point x="641" y="453" type="move"/>
      <point x="1163" y="209" type="line"/>
    </contour>
  </outline>
</glyph>
<glyph name="equal" format="2">
  <advance width="1007"/>
  <unicode hex="003D"/>
  <outline>
    <contour>
      <point x="66" y="945" type="move"/>
      <point x="941" y="945" type="line"/>
    </contour>
    <contour>
      <point x="66" y="455" type="move"/>
      <point x="941" y="455" type="line"/>
    </contour>
  </outline>
</glyph>
<glyph name="greater" format="2">
  <advance width="1299"/>
  <unicode hex="003E"/>
  <outline>
    <contour>
      <point x="136" y="209" type="move"/>
      <point x="1163" y="696" type="line"/>
    </contour>
    <contour>
      <point x="136" y="1191" type="move"/>
      <point x="658" y="947" type="line"/>
    </contour>
  </outline>
</glyph>
<glyph name="question" format="2">
  <advance width="953"/>
  <unicode hex="003F"/>
  <outline>
    <contour>
      <point x="426" y="299" type="move"/>
      <point x="426" y="638" type="line"/>
    </contour>
    <contour>
      <point x="426" y="0" type="curve" smooth="yes"/>
      <point x="467" y="0"/>
      <point x="501" y="34"/>
      <point x="501" y="75" type="curve" smooth="yes"/>
      <point x="501" y="116"/>
      <point x="467" y="150"/>
      <point x="426" y="150" type="curve" smooth="yes"/>
      <point x="385" y="150"/>
      <point x="351" y="116"/>
      <point x="351" y="75" type="curve" smooth="yes"/>
      <point x="351" y="34"/>
      <point x="385" y="0"/>
    </contour>
    <contour>
      <point x="625" y="799" type="move"/>
      <point x="736" y="909"/>
      <point x="736" y="1087"/>
      <point x="625" y="1198" type="curve" smooth="yes"/>
      <point x="515" y="1308"/>
      <point x="337" y="1308"/>
      <point x="227" y="1198" type="curve"/>
    </contour>
  </outline>
</glyph>
<glyph name="at" format="2">
  <advance width="1389"/>
  <unicode hex="0040"/>
  <outline>
    <contour>
      <point x="782" y="490" type="curve" smooth="yes"/>
      <point x="898" y="490"/>
      <point x="992" y="584"/>
      <point x="992" y="700" type="curve" smooth="yes"/>
      <point x="992" y="816"/>
      <point x="898" y="910"/>
      <point x="782" y="910" type="curve" smooth="yes"/>
      <point x="666" y="910"/>
      <point x="572" y="816"/>
      <point x="572" y="700" type="curve" smooth="yes"/>
      <point x="572" y="584"/>
      <point x="666" y="490"/>
    </contour>
    <contour>
      <point x="790" y="120" type="move"/>
    </contour>
    <contour>
      <point x="1201" y="1110" type="move"/>
      <point x="974" y="1337"/>
      <point x="606" y="1337"/>
      <point x="380" y="1111" type="curve" smooth="yes"/>
      <point x="153" y="884"/>
      <point x="153" y="516"/>
      <point x="380" y="289" type="curve" smooth="yes"/>
      <point x="493" y="176"/>
      <point x="641" y="120"/>
      <point x="790" y="120" type="curve" smooth="yes"/>
      <point x="1235" y="120" type="line"/>
    </contour>
  </outline>
</glyph>
<glyph name="A" format="2">
  <advance width="1412"/>
  <unicode hex="0041"/>
  <unicode hex="0061"/>
  <anchor x="706" y="0" name="bottom"/>
  <anchor x="1283" y="-2" name="ogonek"/>
  <anchor x="706" y="1400" name="top"/>
  <outline>
    <contour>
      <point x="712" y="1390" type="move"/>
      <point x="1303" y="10" type="line"/>
    </contour>
    <contour>
      <point x="405" y="711" type="move"/>
      <point x="109" y="10" type="line"/>
    </contour>
  </outline>
</glyph>
<glyph name="B" format="2">
  <advance width="1278"/>
  <unicode hex="0042"/>
  <unicode hex="0062"/>
  <anchor x="645" y="0" name="bottom"/>
  <anchor x="645" y="700" name="center"/>
  <anchor x="595" y="1400" name="top"/>
  <outline>
    <contour>
      <point x="125" y="1000" type="move"/>
      <point x="125" y="0" type="line"/>
    </contour>
    <contour>
      <point x="185" y="1280" type="move"/>
      <point x="735" y="1280" type="line" smooth="yes"/>
      <point x="879" y="1280"/>
      <point x="995" y="1164"/>
      <point x="995" y="1020" type="curve" smooth="yes"/>
      <point x="995" y="876"/>
      <point x="879" y="760"/>
      <point x="735" y="760" type="curve" smooth="yes"/>
      <point x="465" y="760" type="line"/>
    </contour>
    <contour>
      <point x="575" y="120" type="move"/>
      <point x="835" y="120" type="line" smooth="yes"/>
      <point x="979" y="120"/>
      <point x="1095" y="236"/>
      <point x="1095" y="380" type="curve" smooth="yes"/>
      <point x="1095" y="524"/>
      <point x="979" y="640"/>
      <point x="835" y="640" type="curve" smooth="yes"/>
      <point x="655" y="640" type="line"/>
    </contour>
  </outline>
</glyph>
<glyph name="C" format="2">
  <advance width="1254"/>
  <unicode hex="0043"/>
  <unicode hex="0063"/>
  <anchor x="641" y="0" name="bottom"/>
  <anchor x="701" y="1400" name="top"/>
  <outline>
    <contour>
      <point x="1091" y="1400" type="curve" smooth="yes"/>
      <point x="1058" y="1400"/>
      <point x="1031" y="1373"/>
      <point x="1031" y="1340" type="curve" smooth="yes"/>
      <point x="1031" y="1307"/>
      <point x="1058" y="1280"/>
      <point x="1091" y="1280" type="curve" smooth="yes"/>
      <point x="1124" y="1280"/>
      <point x="1151" y="1307"/>
      <point x="1151" y="1340" type="curve" smooth="yes"/>
      <point x="1151" y="1373"/>
      <point x="1124" y="1400"/>
    </contour>
    <contour>
      <point x="790" y="1280" type="move"/>
      <point x="470" y="1280"/>
      <point x="210" y="1020"/>
      <point x="210" y="700" type="curve" smooth="yes"/>
      <point x="210" y="380"/>
      <point x="470" y="120"/>
      <point x="790" y="120" type="curve" smooth="yes"/>
      <point x="1144" y="120" type="line"/>
    </contour>
  </outline>
</glyph>
<glyph name="D" format="2">
  <advance width="1340"/>
  <unicode hex="0044"/>
  <unicode hex="0064"/>
  <anchor x="668" y="0" name="bottom"/>
  <anchor x="668" y="700" name="center"/>
  <anchor x="608" y="1400" name="top"/>
  <outline>
    <contour>
      <point x="125" y="6" type="move"/>
      <point x="125" y="791" type="line"/>
    </contour>
    <contour>
      <point x="131" y="1280" type="move"/>
      <point x="550" y="1280" type="line" smooth="yes"/>
      <point x="870" y="1280"/>
      <point x="1130" y="1020"/>
      <point x="1130" y="700" type="curve" smooth="yes"/>
      <point x="1130" y="380"/>
      <point x="870" y="120"/>
      <point x="550" y="120" type="curve"/>
    </contour>
  </outline>
</glyph>
<glyph name="E" format="2">
  <advance width="1089"/>
  <unicode hex="0045"/>
  <unicode hex="0065"/>
  <anchor x="522" y="0" name="bottom"/>
  <anchor x="950" y="0" name="ogonek"/>
  <anchor x="542" y="1400" name="top"/>
  <anchor x="45" y="1400" name="topleft"/>
  <outline>
    <contour>
      <point x="185" y="760" type="move"/>
      <point x="185" y="120" type="line"/>
    </contour>
    <contour>
      <point x="1003" y="700" type="move"/>
      <point x="458" y="700" type="line"/>
    </contour>
    <contour>
      <point x="1003" y="1340" type="move"/>
      <point x="185" y="1340" type="line"/>
    </contour>
    <contour>
      <point x="185" y="60" type="move"/>
      <point x="1003" y="60" type="line"/>
    </contour>
  </outline>
</glyph>
<glyph name="F" format="2">
  <advance width="1094"/>
  <unicode hex="0046"/>
  <unicode hex="0066"/>
  <anchor x="545" y="0" name="bottom"/>
  <anchor x="565" y="1400" name="top"/>
  <outline>
    <contour>
      <point x="185" y="60" type="move"/>
      <point x="185" y="640" type="line"/>
    </contour>
    <contour>
      <point x="1008" y="1340" type="move"/>
      <point x="185" y="1340" type="line"/>
    </contour>
    <contour>
      <point x="185" y="700" type="move"/>
      <point x="908" y="700" type="line"/>
    </contour>
  </outline>
</glyph>
<glyph name="G" format="2">
  <advance width="1415"/>
  <unicode hex="0047"/>
  <unicode hex="0067"/>
  <anchor x="710" y="0" name="bottom"/>
  <anchor x="770" y="1400" name="top"/>
  <outline>
    <contour>
      <point x="798" y="1340" type="move"/>
    </contour>
    <contour>
      <point x="1284" y="608" type="move"/>
      <point x="1284" y="60" type="line"/>
    </contour>
    <contour>
      <point x="1284" y="1280" type="move"/>
      <point x="790" y="1280" type="line" smooth="yes"/>
      <point x="470" y="1280"/>
      <point x="210" y="1020"/>
      <point x="210" y="700" type="curve" smooth="yes"/>
      <point x="210" y="380"/>
      <point x="470" y="120"/>
      <point x="790" y="120" type="curve"/>
    </contour>
  </outline>
</glyph>
<glyph name="H" format="2">
  <advance width="1376"/>
  <unicode hex="0048"/>
  <unicode hex="0068"/>
  <anchor x="688" y="0" name="bottom"/>
  <anchor x="688" y="700" name="center"/>
  <anchor x="688" y="1400" name="top"/>
  <anchor x="45" y="1400" name="topleft"/>
  <outline>
    <contour>
      <point x="1191" y="60" type="move"/>
      <point x="1191" y="700" type="line"/>
    </contour>
    <contour>
      <point x="1191" y="1394" type="move"/>
      <point x="1191" y="995" type="line"/>
    </contour>
    <contour>
      <point x="185" y="405" type="move"/>
      <point x="185" y="6" type="line"/>
    </contour>
    <contour>
      <point x="185" y="700" type="move"/>
      <point x="185" y="1394" type="line"/>
    </contour>
    <contour>
      <point x="245" y="700" type="move"/>
      <point x="1131" y="700" type="line"/>
    </contour>
  </outline>
</glyph>
<glyph name="I" format="2">
  <advance width="370"/>
  <unicode hex="0049"/>
  <unicode hex="0069"/>
  <unicode hex="0131"/>
  <anchor x="185" y="0" name="bottom"/>
  <anchor x="185" y="0" name="ogonek"/>
  <anchor x="185" y="1400" name="top"/>
  <anchor x="45" y="1400" name="topleft"/>
  <outline>
    <contour>
      <point x="185" y="500" type="move"/>
      <point x="185" y="6" type="line"/>
    </contour>
    <contour>
      <point x="185" y="1394" type="move"/>
      <point x="185" y="900" type="line"/>
    </contour>
  </outline>
</glyph>
<glyph name="J" format="2">
  <advance width="1166"/>
  <unicode hex="004A"/>
  <unicode hex="006A"/>
  <unicode hex="0237"/>
  <anchor x="568" y="0" name="bottom"/>
  <anchor x="1006" y="1400" name="top"/>
  <outline>
    <contour>
      <point x="1066" y="1394" type="move"/>
      <point x="1066" y="900" type="line"/>
    </contour>
    <contour>
      <point x="190" y="498" type="move"/>
      <point x="190" y="289"/>
      <point x="359" y="120"/>
      <point x="568" y="120" type="curve" smooth="yes"/>
      <point x="776" y="120"/>
      <point x="945" y="289"/>
      <point x="945" y="498" type="curve"/>
    </contour>
  </outline>
</glyph>
<glyph name="K" format="2">
  <advance width="1254"/>
  <unicode hex="004B"/>
  <unicode hex="006B"/>
  <anchor x="635" y="0" name="bottom"/>
  <anchor x="635" y="1400" name="top"/>
  <outline>
    <contour>
      <point x="125" y="1394" type="move"/>
      <point x="125" y="6" type="line"/>
    </contour>
    <contour>
      <point x="484" y="700" type="move"/>
      <point x="1162" y="22" type="line"/>
    </contour>
    <contour>
      <point x="782" y="998" type="move"/>
      <point x="1162" y="1378" type="line"/>
    </contour>
  </outline>
</glyph>
<glyph name="L" format="2">
  <advance width="1222"/>
  <unicode hex="004C"/>
  <unicode hex="006C"/>
  <anchor x="619" y="0" name="bottom"/>
  <anchor x="619" y="700" name="center"/>
  <anchor x="191" y="1400" name="top"/>
  <anchor x="1192" y="1400" name="topright"/>
  <outline>
    <contour>
      <point x="131" y="4" type="move"/>
      <point x="1146" y="4" type="line"/>
    </contour>
    <contour>
      <point x="131" y="1394" type="move"/>
      <point x="131" y="402" type="line"/>
    </contour>
  </outline>
</glyph>
<glyph name="M" format="2">
  <advance width="1570"/>
  <unicode hex="004D"/>
  <unicode hex="006D"/>
  <anchor x="715" y="0" name="bottom"/>
  <anchor x="785" y="1400" name="top"/>
  <outline>
    <contour>
      <point x="125" y="6" type="move"/>
      <point x="125" y="1394" type="line"/>
    </contour>
    <contour>
      <point x="1445" y="6" type="move"/>
      <point x="1445" y="1394" type="line"/>
    </contour>
    <contour>
      <point x="152" y="1375" type="move"/>
      <point x="785" y="698" type="line"/>
    </contour>
  </outline>
</glyph>
<glyph name="N" format="2">
  <advance width="1463"/>
  <unicode hex="004E"/>
  <unicode hex="006E"/>
  <anchor x="732" y="0" name="bottom"/>
  <anchor x="732" y="1400" name="top"/>
  <outline>
    <contour>
      <point x="1338" y="1394" type="move"/>
      <point x="1338" y="6" type="line"/>
    </contour>
    <contour>
      <point x="1280" y="57" type="move"/>
      <point x="583" y="1000" type="line"/>
    </contour>
    <contour>
      <point x="125" y="1394" type="move"/>
      <point x="125" y="6" type="line"/>
    </contour>
  </outline>
</glyph>
<glyph name="O" format="2">
  <advance width="1580"/>
  <unicode hex="004F"/>
  <unicode hex="006F"/>
  <anchor x="790" y="0" name="bottom"/>
  <anchor x="790" y="700" name="center"/>
  <anchor x="790" y="0" name="ogonek"/>
  <anchor x="790" y="1400" name="top"/>
  <anchor x="50" y="1400" name="topleft"/>
  <anchor x="1530" y="1400" name="topright"/>
  <outline>
    <contour>
      <point x="295" y="1136" type="curve" smooth="yes"/>
      <point x="328" y="1136"/>
      <point x="355" y="1163"/>
      <point x="355" y="1196" type="curve" smooth="yes"/>
      <point x="355" y="1229"/>
      <point x="328" y="1256"/>
      <point x="295" y="1256" type="curve" smooth="yes"/>
      <point x="262" y="1256"/>
      <point x="235" y="1229"/>
      <point x="235" y="1196" type="curve" smooth="yes"/>
      <point x="235" y="1163"/>
      <point x="262" y="1136"/>
    </contour>
    <contour>
      <point x="210" y="700" type="move"/>
      <point x="210" y="379"/>
      <point x="469" y="120"/>
      <point x="790" y="120" type="curve" smooth="yes"/>
      <point x="1111" y="120"/>
      <point x="1370" y="379"/>
      <point x="1370" y="700" type="curve" smooth="yes"/>
      <point x="1370" y="1021"/>
      <point x="1111" y="1280"/>
      <point x="790" y="1280" type="curve"/>
    </contour>
  </outline>
</glyph>
<glyph name="P" format="2">
  <advance width="1201"/>
  <unicode hex="0050"/>
  <unicode hex="0070"/>
  <anchor x="601" y="0" name="bottom"/>
  <anchor x="601" y="1400" name="top"/>
  <outline>
    <contour>
      <point x="125" y="661" type="move"/>
      <point x="125" y="6" type="line"/>
    </contour>
    <contour>
      <point x="185" y="1276" type="move"/>
      <point x="729" y="1276" type="line" smooth="yes"/>
      <point x="882" y="1276"/>
      <point x="1006" y="1152"/>
      <point x="1006" y="999" type="curve" smooth="yes"/>
      <point x="1006" y="845"/>
      <point x="882" y="721"/>
      <point x="729" y="721" type="curve" smooth="yes"/>
      <point x="583" y="721" type="line"/>
    </contour>
  </outline>
</glyph>
<glyph name="Q" format="2">
  <advance width="1580"/>
  <unicode hex="0051"/>
  <unicode hex="0071"/>
  <anchor x="790" y="0" name="bottom"/>
  <anchor x="790" y="1400" name="top"/>
  <outline>
    <contour>
      <point x="975" y="514" type="move"/>
      <point x="1429" y="60" type="line"/>
    </contour>
    <contour>
      <point x="1370" y="700" type="move"/>
      <point x="1370" y="1021"/>
      <point x="1111" y="1280"/>
      <point x="790" y="1280" type="curve" smooth="yes"/>
      <point x="469" y="1280"/>
      <point x="210" y="1021"/>
      <point x="210" y="700" type="curve" smooth="yes"/>
      <point x="210" y="379"/>
      <point x="469" y="120"/>
      <point x="790" y="120" type="curve"/>
    </contour>
  </outline>
</glyph>
<glyph name="R" format="2">
  <advance width="1183"/>
  <unicode hex="0052"/>
  <unicode hex="0072"/>
  <anchor x="604" y="0" name="bottom"/>
  <anchor x="604" y="1400" name="top"/>
  <outline>
    <contour>
      <point x="141" y="661" type="move"/>
      <point x="141" y="6" type="line"/>
    </contour>
    <contour>
      <point x="598" y="658" type="move"/>
      <point x="1086" y="17" type="line"/>
    </contour>
    <contour>
      <point x="185" y="1276" type="move"/>
      <point x="679" y="1276" type="line" smooth="yes"/>
      <point x="832" y="1276"/>
      <point x="956" y="1152"/>
      <point x="956" y="999" type="curve" smooth="yes"/>
      <point x="956" y="845"/>
      <point x="832" y="721"/>
      <point x="679" y="721" type="curve" smooth="yes"/>
      <point x="596" y="721" type="line"/>
    </contour>
  </outline>
</glyph>
<glyph name="S" format="2">
  <advance width="1166"/>
  <unicode hex="0053"/>
  <unicode hex="0073"/>
  <anchor x="523" y="0" name="bottom"/>
  <anchor x="583" y="1400" name="top"/>
  <outline>
    <contour>
      <point x="475" y="700" type="move"/>
      <point x="692" y="700" type="line"/>
    </contour>
    <contour>
      <point x="1080" y="1280" type="move"/>
      <point x="434" y="1280" type="line"/>
      <point x="308" y="1280"/>
      <point x="206" y="1178"/>
      <point x="206" y="1052" type="curve"/>
    </contour>
    <contour>
      <point x="86" y="120" type="move"/>
      <point x="732" y="120" type="line"/>
      <point x="858" y="120"/>
      <point x="960" y="222"/>
      <point x="960" y="348" type="curve"/>
    </contour>
  </outline>
</glyph>
<glyph name="T" format="2">
  <advance width="1250"/>
  <unicode hex="0054"/>
  <unicode hex="0074"/>
  <anchor x="565" y="0" name="bottom"/>
  <anchor x="625" y="700" name="center"/>
  <anchor x="625" y="1400" name="top"/>
  <outline>
    <contour>
      <point x="625" y="6" type="move"/>
      <point x="625" y="1346" type="line"/>
    </contour>
    <contour>
      <point x="679" y="1400" type="move"/>
      <point x="76" y="1400" type="line"/>
    </contour>
    <contour>
      <point x="1174" y="1400" type="move"/>
      <point x="861" y="1400" type="line"/>
    </contour>
  </outline>
</glyph>
<glyph name="U" format="2">
  <advance width="1246"/>
  <unicode hex="0055"/>
  <unicode hex="0075"/>
  <anchor x="623" y="0" name="bottom"/>
  <anchor x="1101" y="10" name="ogonek"/>
  <anchor x="623" y="1400" name="top"/>
  <anchor x="1201" y="1400" name="topright"/>
  <outline>
    <contour>
      <point x="246" y="498" type="move"/>
      <point x="246" y="289"/>
      <point x="415" y="120"/>
      <point x="624" y="120" type="curve" smooth="yes"/>
      <point x="832" y="120"/>
      <point x="1001" y="289"/>
      <point x="1001" y="498" type="curve" smooth="yes"/>
      <point x="1001" y="1394" type="line"/>
    </contour>
    <contour>
      <point x="125" y="1394" type="move"/>
      <point x="125" y="899" type="line"/>
    </contour>
  </outline>
</glyph>
<glyph name="V" format="2">
  <advance width="1412"/>
  <unicode hex="0056"/>
  <unicode hex="0076"/>
  <anchor x="706" y="0" name="bottom"/>
  <anchor x="706" y="1400" name="top"/>
  <outline>
    <contour>
      <point x="1303" y="1390" type="move"/>
      <point x="712" y="10" type="line"/>
    </contour>
    <contour>
      <point x="109" y="1390" type="move"/>
      <point x="405" y="689" type="line"/>
    </contour>
  </outline>
</glyph>
<glyph name="W" format="2">
  <advance width="1976"/>
  <unicode hex="0057"/>
  <unicode hex="0077"/>
  <anchor x="988" y="0" name="bottom"/>
  <anchor x="988" y="1400" name="top"/>
  <outline>
    <contour>
      <point x="1004" y="1390" type="move"/>
      <point x="563" y="10" type="line"/>
    </contour>
    <contour>
      <point x="114" y="1390" type="move"/>
      <point x="335" y="689" type="line"/>
    </contour>
    <contour>
      <point x="1862" y="1390" type="move"/>
      <point x="1422" y="10" type="line"/>
    </contour>
    <contour>
      <point x="972" y="1390" type="move"/>
      <point x="1193" y="689" type="line"/>
    </contour>
  </outline>
</glyph>
<glyph name="X" format="2">
  <advance width="1267"/>
  <unicode hex="0058"/>
  <unicode hex="0078"/>
  <anchor x="635" y="0" name="bottom"/>
  <anchor x="635" y="1400" name="top"/>
  <outline>
    <contour>
      <point x="1170" y="18" type="move"/>
      <point x="99" y="1382" type="line"/>
    </contour>
    <contour>
      <point x="97" y="16" type="move"/>
      <point x="400" y="402" type="line"/>
    </contour>
    <contour>
      <point x="869" y="998" type="move"/>
      <point x="1170" y="1382" type="line"/>
    </contour>
  </outline>
</glyph>
<glyph name="Y" format="2">
  <advance width="1266"/>
  <unicode hex="0059"/>
  <unicode hex="0079"/>
  <anchor x="633" y="0" name="bottom"/>
  <anchor x="633" y="1400" name="top"/>
  <anchor x="19" y="1400" name="topleft"/>
  <outline>
    <contour>
      <point x="633" y="6" type="move"/>
      <point x="633" y="739" type="line"/>
    </contour>
    <contour>
      <point x="97" y="1382" type="move"/>
      <point x="398" y="998" type="line"/>
    </contour>
    <contour>
      <point x="633" y="699" type="move"/>
      <point x="1169" y="1383" type="line"/>
    </contour>
  </outline>
</glyph>
<glyph name="Z" format="2">
  <advance width="1246"/>
  <unicode hex="005A"/>
  <unicode hex="007A"/>
  <anchor x="623" y="0" name="bottom"/>
  <anchor x="623" y="700" name="center"/>
  <anchor x="623" y="1400" name="top"/>
  <outline>
    <contour>
      <point x="700" y="799" type="move"/>
      <point x="99" y="25" type="line"/>
    </contour>
    <contour>
      <point x="76" y="1396" type="move"/>
      <point x="1170" y="1396" type="line"/>
    </contour>
    <contour>
      <point x="76" y="4" type="move"/>
      <point x="1170" y="4" type="line"/>
    </contour>
  </outline>
</glyph>
<glyph name="grave" format="2">
  <advance width="488"/>
  <unicode hex="0060"/>
  <outline>
    <contour>
      <point x="404" y="1027" type="move"/>
      <point x="84" y="1380" type="line"/>
    </contour>
  </outline>
</glyph>
<glyph name="braceleft" format="2">
  <advance width="750"/>
  <unicode hex="007B"/>
  <outline>
    <contour>
      <point x="565" y="1280" type="move"/>
      <point x="468" y="1280"/>
      <point x="391" y="1202"/>
      <point x="391" y="1107" type="curve" smooth="yes"/>
      <point x="391" y="878" type="line"/>
    </contour>
    <contour>
      <point x="185" y="640" type="curve" smooth="yes"/>
      <point x="218" y="640"/>
      <point x="245" y="667"/>
      <point x="245" y="700" type="curve" smooth="yes"/>
      <point x="245" y="733"/>
      <point x="218" y="760"/>
      <point x="185" y="760" type="curve" smooth="yes"/>
      <point x="152" y="760"/>
      <point x="125" y="733"/>
      <point x="125" y="700" type="curve" smooth="yes"/>
      <point x="125" y="667"/>
      <point x="152" y="640"/>
    </contour>
    <contour>
      <point x="391" y="522" type="move"/>
      <point x="391" y="293" type="line" smooth="yes"/>
      <point x="391" y="198"/>
      <point x="468" y="120"/>
      <point x="565" y="120" type="curve"/>
    </contour>
  </outline>
</glyph>
<glyph name="bar" format="2">
  <advance width="370"/>
  <unicode hex="007C"/>
  <outline>
    <contour>
      <point x="185" y="1394" type="move"/>
      <point x="185" y="6" type="line"/>
    </contour>
  </outline>
</glyph>
<glyph name="asciitilde" format="2">
  <advance width="918"/>
  <unicode hex="007E"/>
  <outline>
    <contour>
      <point x="185" y="666" type="move"/>
      <point x="256" y="787"/>
      <point x="358" y="781"/>
      <point x="459" y="700" type="curve" smooth="yes"/>
      <point x="560" y="619"/>
      <point x="662" y="613"/>
      <point x="733" y="734" type="curve"/>
    </contour>
  </outline>
</glyph>
<glyph name="cent" format="2">
  <advance width="878"/>
  <unicode hex="00A2"/>
  <outline>
    <contour>
      <point x="822" y="1080" type="move"/>
      <point x="590" y="1080" type="line" smooth="yes"/>
      <point x="380" y="1080"/>
      <point x="210" y="910"/>
      <point x="210" y="700" type="curve" smooth="yes"/>
      <point x="210" y="490"/>
      <point x="380" y="320"/>
      <point x="590" y="320" type="curve"/>
    </contour>
    <contour>
      <point x="768" y="200" type="curve" smooth="yes"/>
      <point x="801" y="200"/>
      <point x="828" y="227"/>
      <point x="828" y="260" type="curve" smooth="yes"/>
      <point x="828" y="293"/>
      <point x="801" y="320"/>
      <point x="768" y="320" type="curve" smooth="yes"/>
      <point x="735" y="320"/>
      <point x="708" y="293"/>
      <point x="708" y="260" type="curve" smooth="yes"/>
      <point x="708" y="227"/>
      <point x="735" y="200"/>
    </contour>
    <contour>
      <point x="520" y="1530" type="move"/>
      <point x="520" y="1282" type="line"/>
    </contour>
    <contour>
      <point x="520" y="118" type="move"/>
      <point x="520" y="-130" type="line"/>
    </contour>
  </outline>
</glyph>
<glyph name="sterling" format="2">
  <advance width="1398"/>
  <unicode hex="00A3"/>
  <outline>
    <contour>
      <point x="1267" y="0" type="move"/>
      <point x="185" y="1" type="line"/>
    </contour>
    <contour>
      <point x="1152" y="898" type="move"/>
      <point x="1152" y="1107"/>
      <point x="983" y="1276"/>
      <point x="774" y="1276" type="curve" smooth="yes"/>
      <point x="566" y="1276"/>
      <point x="397" y="1107"/>
      <point x="397" y="898" type="curve"/>
    </contour>
    <contour>
      <point x="567" y="483" type="move"/>
      <point x="185" y="483" type="line"/>
    </contour>
  </outline>
</glyph>
<glyph name="yen" format="2">
  <advance width="1258"/>
  <unicode hex="00A5"/>
  <outline>
    <contour>
      <point x="998" y="523" type="move"/>
      <point x="260" y="523" type="line"/>
    </contour>
    <contour>
      <point x="998" y="263" type="move"/>
      <point x="260" y="263" type="line"/>
    </contour>
    <contour>
      <point x="93" y="1382" type="move"/>
      <point x="394" y="1068" type="line"/>
    </contour>
    <contour>
      <point x="629" y="823" type="move"/>
      <point x="1165" y="1383" type="line"/>
    </contour>
  </outline>
</glyph>
<glyph name="brokenbar" format="2">
  <advance width="370"/>
  <unicode hex="00A6"/>
  <outline>
    <contour>
      <point x="185" y="350" type="move"/>
      <point x="185" y="6" type="line"/>
    </contour>
    <contour>
      <point x="185" y="1394" type="move"/>
      <point x="185" y="1050" type="line"/>
    </contour>
  </outline>
</glyph>
<glyph name="section" format="2">
  <advance width="956"/>
  <unicode hex="00A7"/>
  <outline>
    <contour>
      <point x="825" y="1280" type="move"/>
      <point x="479" y="1280" type="line"/>
      <point x="353" y="1280"/>
      <point x="251" y="1178"/>
      <point x="251" y="1052" type="curve"/>
    </contour>
    <contour>
      <point x="131" y="-280" type="move"/>
      <point x="477" y="-280" type="line"/>
      <point x="603" y="-280"/>
      <point x="705" y="-178"/>
      <point x="705" y="-52" type="curve"/>
    </contour>
    <contour>
      <point x="478" y="273" type="curve" smooth="yes"/>
      <point x="603" y="273"/>
      <point x="705" y="375"/>
      <point x="705" y="500" type="curve" smooth="yes"/>
      <point x="705" y="625"/>
      <point x="603" y="727"/>
      <point x="478" y="727" type="curve" smooth="yes"/>
      <point x="353" y="727"/>
      <point x="251" y="625"/>
      <point x="251" y="500" type="curve" smooth="yes"/>
      <point x="251" y="375"/>
      <point x="353" y="273"/>
    </contour>
  </outline>
</glyph>
<glyph name="copyright" format="2">
  <advance width="1580"/>
  <unicode hex="00A9"/>
  <anchor x="90.0" y="669.0" name="bottom"/>
  <anchor x="790.0" y="669.0" name="center"/>
  <anchor x="90.0" y="669.0" name="ogonek"/>
  <anchor x="1490.0" y="669.0" name="top"/>
  <anchor x="1490.0" y="1409.0" name="topleft"/>
  <anchor x="1490.0" y="-71.0" name="topright"/>
  <outline>
    <contour>
      <point x="962" y="1052" type="curve" smooth="yes"/>
      <point x="931" y="1052"/>
      <point x="902" y="1026"/>
      <point x="902" y="992" type="curve" smooth="yes"/>
      <point x="902" y="959"/>
      <point x="931" y="932"/>
      <point x="962" y="932" type="curve" smooth="yes"/>
      <point x="995" y="932"/>
      <point x="1022" y="959"/>
      <point x="1022" y="992" type="curve" smooth="yes"/>
      <point x="1022" y="1026"/>
      <point x="995" y="1052"/>
    </contour>
    <contour>
      <point x="827" y="932" type="move"/>
      <point x="683" y="932"/>
      <point x="566" y="815"/>
      <point x="566" y="671" type="curve" smooth="yes"/>
      <point x="566" y="527"/>
      <point x="683" y="410"/>
      <point x="827" y="410" type="curve" smooth="yes"/>
      <point x="986" y="410" type="line"/>
    </contour>
    <component base="O" xScale="0.0" xyScale="-1.0" yxScale="1.0" yScale="0.0" xOffset="90" yOffset="1459"/>
  </outline>
</glyph>
<glyph name="ordfeminine" format="2">
  <advance width="697"/>
  <unicode hex="00AA"/>
  <outline>
    <contour>
      <point x="351" y="1390" type="move"/>
      <point x="588" y="837" type="line"/>
    </contour>
    <contour>
      <point x="228" y="1118" type="move"/>
      <point x="109" y="837" type="line"/>
    </contour>
  </outline>
</glyph>
<glyph name="logicalnot" format="2">
  <advance width="1007"/>
  <unicode hex="00AC"/>
  <outline>
    <contour>
      <point x="66" y="830" type="move"/>
      <point x="921" y="830" type="line"/>
    </contour>
    <contour>
      <point x="867" y="824" type="move"/>
      <point x="867" y="370" type="line"/>
    </contour>
  </outline>
</glyph>
<glyph name="registered" format="2">
  <advance width="1580"/>
  <unicode hex="00AE"/>
  <anchor x="790" y="0" name="bottom"/>
  <anchor x="790" y="700" name="center"/>
  <anchor x="790" y="0" name="ogonek"/>
  <anchor x="790" y="1400" name="top"/>
  <anchor x="50" y="1400" name="topleft"/>
  <anchor x="1530" y="1400" name="topright"/>
  <outline>
    <contour>
      <point x="566" y="672" type="move"/>
      <point x="566" y="378" type="line"/>
    </contour>
    <contour>
      <point x="771" y="639" type="move"/>
      <point x="991" y="383" type="line"/>
    </contour>
    <contour>
      <point x="566" y="949" type="move"/>
      <point x="808" y="949" type="line" smooth="yes"/>
      <point x="877" y="949"/>
      <point x="933" y="893"/>
      <point x="933" y="825" type="curve" smooth="yes"/>
      <point x="933" y="755"/>
      <point x="877" y="699"/>
      <point x="808" y="699" type="curve" smooth="yes"/>
      <point x="771" y="699" type="line"/>
    </contour>
    <component base="O"/>
  </outline>
</glyph>
<glyph name="plusminus" format="2">
  <advance width="1007"/>
  <unicode hex="00B1"/>
  <outline>
    <contour>
      <point x="504" y="1178" type="move"/>
      <point x="504" y="423" type="line"/>
    </contour>
    <contour>
      <point x="942" y="800" type="move"/>
      <point x="679" y="800" type="line"/>
    </contour>
    <contour>
      <point x="329" y="800" type="move"/>
      <point x="66" y="800" type="line"/>
    </contour>
    <contour>
      <point x="941" y="277" type="move"/>
      <point x="66" y="277" type="line"/>
    </contour>
  </outline>
</glyph>
<glyph name="twosuperior" format="2">
  <advance width="540"/>
  <unicode hex="00B2"/>
  <outline>
    <contour>
      <point x="381" y="1185" type="move"/>
      <point x="381" y="1248"/>
      <point x="329" y="1300"/>
      <point x="266" y="1300" type="curve" smooth="yes"/>
      <point x="203" y="1300"/>
      <point x="151" y="1248"/>
      <point x="151" y="1185" type="curve"/>
    </contour>
    <contour>
      <point x="478" y="624" type="move"/>
      <point x="56" y="624" type="line"/>
    </contour>
    <contour>
      <point x="262" y="882" type="move"/>
      <point x="74" y="641" type="line"/>
    </contour>
  </outline>
</glyph>
<glyph name="threesuperior" format="2">
  <advance width="540"/>
  <unicode hex="00B3"/>
  <outline>
    <contour>
      <point x="268" y="1074" type="move"/>
      <point x="331" y="1074"/>
      <point x="383" y="1126"/>
      <point x="383" y="1189" type="curve" smooth="yes"/>
      <point x="383" y="1252"/>
      <point x="331" y="1304"/>
      <point x="268" y="1304" type="curve" smooth="yes"/>
      <point x="205" y="1304"/>
      <point x="153" y="1252"/>
      <point x="153" y="1189" type="curve"/>
    </contour>
    <contour>
      <point x="152" y="841" type="move"/>
      <point x="152" y="778"/>
      <point x="204" y="726"/>
      <point x="267" y="726" type="curve" smooth="yes"/>
      <point x="331" y="726"/>
      <point x="382" y="778"/>
      <point x="382" y="841" type="curve" smooth="yes"/>
    </contour>
  </outline>
</glyph>
<glyph name="micro" format="2">
  <advance width="1245"/>
  <unicode hex="00B5"/>
  <outline>
    <contour>
      <point x="185" y="100" type="move"/>
      <point x="185" y="-394" type="line"/>
    </contour>
    <contour>
      <point x="185" y="994" type="move"/>
      <point x="185" y="500" type="line"/>
    </contour>
    <contour>
      <point x="1000" y="996" type="move"/>
      <point x="1000" y="502" type="line" smooth="yes"/>
      <point x="1000" y="293"/>
      <point x="831" y="124"/>
      <point x="623" y="124" type="curve"/>
    </contour>
  </outline>
</glyph>
<glyph name="paragraph" format="2">
  <advance width="1109"/>
  <unicode hex="00B6"/>
  <outline>
    <contour>
      <point x="949" y="1394" type="move"/>
      <point x="949" y="6" type="line"/>
    </contour>
    <contour>
      <point x="649" y="1394" type="move"/>
      <point x="649" y="6" type="line"/>
    </contour>
    <contour>
      <point x="475" y="1280" type="move"/>
      <point x="348" y="1280"/>
      <point x="245" y="1177"/>
      <point x="245" y="1050" type="curve" smooth="yes"/>
      <point x="245" y="923"/>
      <point x="348" y="820"/>
      <point x="475" y="820" type="curve"/>
    </contour>
  </outline>
</glyph>
<glyph name="onesuperior" format="2">
  <advance width="540"/>
  <unicode hex="00B9"/>
  <outline>
    <contour>
      <point x="304" y="902" type="move"/>
      <point x="304" y="629" type="line"/>
    </contour>
    <contour>
      <point x="156" y="1248" type="move"/>
      <point x="304" y="1350" type="line"/>
    </contour>
    <contour>
      <point x="304" y="1395" type="move"/>
      <point x="304" y="1102" type="line"/>
    </contour>
  </outline>
</glyph>
<glyph name="ordmasculine" format="2">
  <advance width="701"/>
  <unicode hex="00BA"/>
  <outline>
    <contour>
      <point x="153" y="1259" type="curve" smooth="yes"/>
      <point x="185" y="1259"/>
      <point x="212" y="1286"/>
      <point x="212" y="1318" type="curve" smooth="yes"/>
      <point x="212" y="1351"/>
      <point x="185" y="1378"/>
      <point x="153" y="1378" type="curve" smooth="yes"/>
      <point x="120" y="1378"/>
      <point x="93" y="1351"/>
      <point x="93" y="1318" type="curve" smooth="yes"/>
      <point x="93" y="1286"/>
      <point x="120" y="1259"/>
    </contour>
    <contour>
      <point x="190" y="1119" type="move"/>
      <point x="190" y="1030"/>
      <point x="262" y="959"/>
      <point x="351" y="959" type="curve" smooth="yes"/>
      <point x="440" y="959"/>
      <point x="511" y="1030"/>
      <point x="511" y="1119" type="curve" smooth="yes"/>
      <point x="511" y="1208"/>
      <point x="440" y="1280"/>
      <point x="351" y="1280" type="curve"/>
    </contour>
  </outline>
</glyph>
<glyph name="AE" format="2">
  <advance width="1680"/>
  <unicode hex="00C6"/>
  <unicode hex="00E6"/>
  <outline>
    <contour>
      <point x="717" y="1386" type="move"/>
      <point x="108" y="14" type="line"/>
    </contour>
    <contour>
      <point x="897" y="760" type="move"/>
      <point x="897" y="120" type="line"/>
    </contour>
    <contour>
      <point x="1594" y="1340" type="move"/>
      <point x="697" y="1340" type="line"/>
    </contour>
    <contour>
      <point x="897" y="60" type="move"/>
      <point x="1594" y="60" type="line"/>
    </contour>
    <contour>
      <point x="1593" y="700" type="move"/>
      <point x="1170" y="700" type="line"/>
    </contour>
  </outline>
</glyph>
<glyph name="Eth" format="2">
  <advance width="1364"/>
  <unicode hex="00D0"/>
  <unicode hex="00F0"/>
  <anchor x="722" y="0" name="bottom"/>
  <anchor x="722" y="700" name="center"/>
  <anchor x="662" y="1400" name="top"/>
  <outline>
    <contour>
      <point x="179" y="6" type="move"/>
      <point x="179" y="491" type="line"/>
    </contour>
    <contour>
      <point x="185" y="1280" type="move"/>
      <point x="604" y="1280" type="line" smooth="yes"/>
      <point x="924" y="1280"/>
      <point x="1184" y="1020"/>
      <point x="1184" y="700" type="curve" smooth="yes"/>
      <point x="1184" y="380"/>
      <point x="924" y="120"/>
      <point x="604" y="120" type="curve"/>
    </contour>
    <contour>
      <point x="6" y="700" type="move"/>
      <point x="592" y="700" type="line"/>
    </contour>
  </outline>
</glyph>
<glyph name="multiply" format="2">
  <advance width="1007"/>
  <unicode hex="00D7"/>
  <outline>
    <contour>
      <point x="860" y="1057" type="move"/>
      <point x="148" y="344" type="line"/>
    </contour>
    <contour>
      <point x="860" y="344" type="move"/>
      <point x="627" y="576" type="line"/>
    </contour>
    <contour>
      <point x="380" y="825" type="move"/>
      <point x="147" y="1057" type="line"/>
    </contour>
  </outline>
</glyph>
<glyph name="Oslash" format="2">
  <advance width="1521"/>
  <unicode hex="00D8"/>
  <unicode hex="00F8"/>
  <outline>
    <contour>
      <point x="1298" y="922" type="move"/>
      <point x="1355" y="785"/>
      <point x="1360" y="626"/>
      <point x="1298" y="477" type="curve" smooth="yes"/>
      <point x="1175" y="182"/>
      <point x="836" y="41"/>
      <point x="539" y="164" type="curve"/>
    </contour>
    <contour>
      <point x="982" y="1236" type="move"/>
      <point x="685" y="1359"/>
      <point x="346" y="1218"/>
      <point x="223" y="923" type="curve" smooth="yes"/>
      <point x="161" y="774"/>
      <point x="166" y="615"/>
      <point x="223" y="478" type="curve"/>
    </contour>
    <contour>
      <point x="1439" y="1378" type="move"/>
      <point x="121" y="60" type="line"/>
    </contour>
  </outline>
</glyph>
<glyph name="Thorn" format="2">
  <advance width="1155"/>
  <unicode hex="00DE"/>
  <unicode hex="00FE"/>
  <outline>
    <contour>
      <point x="185" y="363" type="move"/>
      <point x="185" y="6" type="line"/>
    </contour>
    <contour>
      <point x="525" y="978" type="move"/>
      <point x="683" y="978" type="line" smooth="yes"/>
      <point x="836" y="978"/>
      <point x="960" y="854"/>
      <point x="960" y="701" type="curve" smooth="yes"/>
      <point x="960" y="547"/>
      <point x="836" y="423"/>
      <point x="683" y="423" type="curve" smooth="yes"/>
      <point x="583" y="423" type="line"/>
    </contour>
    <contour>
      <point x="183" y="363" type="move"/>
      <point x="583" y="363" type="line"/>
    </contour>
    <contour>
      <point x="185" y="717" type="move"/>
      <point x="185" y="1394" type="line"/>
    </contour>
  </outline>
</glyph>
<glyph name="divide" format="2">
  <advance width="1007"/>
  <unicode hex="00F7"/>
  <outline>
    <contour>
      <point x="941" y="701" type="move"/>
      <point x="66" y="701" type="line"/>
    </contour>
    <contour>
      <point x="504" y="963" type="curve" smooth="yes"/>
      <point x="545" y="963"/>
      <point x="579" y="997"/>
      <point x="579" y="1038" type="curve" smooth="yes"/>
      <point x="579" y="1079"/>
      <point x="545" y="1113"/>
      <point x="504" y="1113" type="curve" smooth="yes"/>
      <point x="463" y="1113"/>
      <point x="429" y="1079"/>
      <point x="429" y="1038" type="curve" smooth="yes"/>
      <point x="429" y="997"/>
      <point x="463" y="963"/>
    </contour>
    <contour>
      <point x="504" y="287" type="curve" smooth="yes"/>
      <point x="545" y="287"/>
      <point x="579" y="321"/>
      <point x="579" y="362" type="curve" smooth="yes"/>
      <point x="579" y="403"/>
      <point x="545" y="437"/>
      <point x="504" y="437" type="curve" smooth="yes"/>
      <point x="463" y="437"/>
      <point x="429" y="403"/>
      <point x="429" y="362" type="curve" smooth="yes"/>
      <point x="429" y="321"/>
      <point x="463" y="287"/>
    </contour>
  </outline>
</glyph>
<glyph name="Lslash" format="2">
  <advance width="1266"/>
  <unicode hex="0141"/>
  <unicode hex="0142"/>
  <outline>
    <contour>
      <point x="241" y="0" type="move"/>
      <point x="1136" y="0" type="line"/>
    </contour>
    <contour>
      <point x="241" y="1394" type="move"/>
      <point x="241" y="926" type="line"/>
    </contour>
    <contour>
      <point x="13" y="570" type="move"/>
      <point x="473" y="830" type="line"/>
    </contour>
    <contour>
      <point x="241" y="474" type="move"/>
      <point x="241" y="6" type="line"/>
    </contour>
  </outline>
</glyph>
<glyph name="OE" format="2">
  <advance width="1829"/>
  <unicode hex="0152"/>
  <unicode hex="0153"/>
  <outline>
    <contour>
      <point x="986" y="760" type="move"/>
      <point x="986" y="120" type="line"/>
    </contour>
    <contour>
      <point x="1743" y="1280" type="move"/>
      <point x="790" y="1280" type="line" smooth="yes"/>
      <point x="469" y="1280"/>
      <point x="210" y="1021"/>
      <point x="210" y="700" type="curve" smooth="yes"/>
      <point x="210" y="379"/>
      <point x="469" y="120"/>
      <point x="790" y="120" type="curve" smooth="yes"/>
    </contour>
    <contour>
      <point x="1046" y="0" type="move"/>
      <point x="1743" y="0" type="line"/>
    </contour>
    <contour>
      <point x="1742" y="700" type="move"/>
      <point x="1319" y="700" type="line"/>
    </contour>
  </outline>
</glyph>
<glyph name="florin" format="2">
  <advance width="946"/>
  <unicode hex="0192"/>
  <outline>
    <contour>
      <point x="761" y="1280" type="move"/>
      <point x="635" y="1280"/>
      <point x="533" y="1178"/>
      <point x="533" y="1052" type="curve"/>
    </contour>
    <contour>
      <point x="185" y="-280" type="move"/>
      <point x="311" y="-280"/>
      <point x="413" y="-178"/>
      <point x="413" y="-52" type="curve" smooth="yes"/>
      <point x="413" y="342" type="line"/>
    </contour>
    <contour>
      <point x="770" y="700" type="move"/>
      <point x="176" y="700" type="line"/>
    </contour>
  </outline>
</glyph>
<glyph name="acutecomb" format="2">
  <unicode hex="0301"/>
  <anchor x="0" y="1400" name="_top"/>
  <anchor x="0" y="1830" name="top"/>
  <outline>
    <contour>
      <point x="-36" y="1577" type="move"/>
      <point x="324" y="1830" type="line"/>
    </contour>
  </outline>
</glyph>
<glyph name="circumflexcomb" format="2">
  <unicode hex="0302"/>
  <anchor x="0" y="1400" name="_top"/>
  <anchor x="0" y="1850" name="top"/>
  <outline>
    <contour>
      <point x="235" y="1577" type="move"/>
      <point x="2" y="1797" type="line"/>
    </contour>
    <contour>
      <point x="-235" y="1577" type="move"/>
      <point x="32" y="1830" type="line"/>
    </contour>
  </outline>
</glyph>
<glyph name="tildecomb" format="2">
  <unicode hex="0303"/>
  <anchor x="0" y="1400" name="_top"/>
  <anchor x="0" y="1740" name="top"/>
  <outline>
    <contour>
      <point x="-228" y="1642" type="move"/>
      <point x="-192" y="1728"/>
      <point x="-99" y="1760"/>
      <point x="0" y="1676" type="curve" smooth="yes"/>
      <point x="99" y="1592"/>
      <point x="192" y="1624"/>
      <point x="228" y="1710" type="curve"/>
    </contour>
  </outline>
</glyph>
<glyph name="macroncomb" format="2">
  <unicode hex="0304"/>
  <anchor x="0" y="1400" name="_top"/>
  <anchor x="0" y="1722" name="top"/>
  <outline>
    <contour>
      <point x="268" y="1672" type="move"/>
      <point x="-268" y="1672" type="line"/>
    </contour>
  </outline>
</glyph>
<glyph name="brevecomb" format="2">
  <unicode hex="0306"/>
  <anchor x="0" y="1400" name="_top"/>
  <anchor x="0" y="1823" name="top"/>
  <outline>
    <contour>
      <point x="-245" y="1818" type="move"/>
      <point x="-245" y="1682"/>
      <point x="-136" y="1573"/>
      <point x="1" y="1573" type="curve" smooth="yes"/>
      <point x="136" y="1573"/>
      <point x="245" y="1682"/>
      <point x="245" y="1818" type="curve"/>
    </contour>
  </outline>
</glyph>
<glyph name="dotaccentcomb" format="2">
  <unicode hex="0307"/>
  <anchor x="0" y="1400" name="_top"/>
  <anchor x="0" y="1744" name="top"/>
  <outline>
    <contour>
      <point x="0" y="1594" type="curve" smooth="yes"/>
      <point x="41" y="1594"/>
      <point x="75" y="1628"/>
      <point x="75" y="1669" type="curve" smooth="yes"/>
      <point x="75" y="1710"/>
      <point x="41" y="1744"/>
      <point x="0" y="1744" type="curve" smooth="yes"/>
      <point x="-41" y="1744"/>
      <point x="-75" y="1710"/>
      <point x="-75" y="1669" type="curve" smooth="yes"/>
      <point x="-75" y="1628"/>
      <point x="-41" y="1594"/>
    </contour>
  </outline>
</glyph>
<glyph name="dieresiscomb" format="2">
  <unicode hex="0308"/>
  <anchor x="0" y="1400" name="_top"/>
  <anchor x="0" y="1744" name="top"/>
  <outline>
    <contour>
      <point x="-180" y="1594" type="curve" smooth="yes"/>
      <point x="-139" y="1594"/>
      <point x="-105" y="1628"/>
      <point x="-105" y="1669" type="curve" smooth="yes"/>
      <point x="-105" y="1710"/>
      <point x="-139" y="1744"/>
      <point x="-180" y="1744" type="curve" smooth="yes"/>
      <point x="-221" y="1744"/>
      <point x="-255" y="1710"/>
      <point x="-255" y="1669" type="curve" smooth="yes"/>
      <point x="-255" y="1628"/>
      <point x="-221" y="1594"/>
    </contour>
    <contour>
      <point x="180" y="1594" type="curve" smooth="yes"/>
      <point x="221" y="1594"/>
      <point x="255" y="1628"/>
      <point x="255" y="1669" type="curve" smooth="yes"/>
      <point x="255" y="1710"/>
      <point x="221" y="1744"/>
      <point x="180" y="1744" type="curve" smooth="yes"/>
      <point x="139" y="1744"/>
      <point x="105" y="1710"/>
      <point x="105" y="1669" type="curve" smooth="yes"/>
      <point x="105" y="1628"/>
      <point x="139" y="1594"/>
    </contour>
  </outline>
</glyph>
<glyph name="ringcomb" format="2">
  <unicode hex="030A"/>
  <anchor x="0" y="1400" name="_top"/>
  <anchor x="0" y="1880" name="top"/>
  <outline>
    <contour>
      <point x="-2" y="1610" type="curve" smooth="yes"/>
      <point x="45" y="1610"/>
      <point x="83" y="1648"/>
      <point x="83" y="1695" type="curve" smooth="yes"/>
      <point x="83" y="1742"/>
      <point x="45" y="1780"/>
      <point x="-2" y="1780" type="curve" smooth="yes"/>
      <point x="-49" y="1780"/>
      <point x="-87" y="1742"/>
      <point x="-87" y="1695" type="curve" smooth="yes"/>
      <point x="-87" y="1648"/>
      <point x="-49" y="1610"/>
    </contour>
  </outline>
</glyph>
<glyph name="hungarumlautcomb" format="2">
  <unicode hex="030B"/>
  <anchor x="127" y="1400" name="_top"/>
  <anchor x="127" y="1849" name="top"/>
  <outline>
    <contour>
      <point x="-153" y="1577" type="move"/>
      <point x="107" y="1830" type="line"/>
    </contour>
    <contour>
      <point x="147" y="1577" type="move"/>
      <point x="407" y="1830" type="line"/>
    </contour>
  </outline>
</glyph>
<glyph name="caroncomb" format="2">
  <unicode hex="030C"/>
  <anchor x="0" y="1400" name="_top"/>
  <anchor x="0" y="1830" name="top"/>
  <outline>
    <contour>
      <point x="-235" y="1810" type="move"/>
      <point x="-2" y="1590" type="line"/>
    </contour>
    <contour>
      <point x="235" y="1810" type="move"/>
      <point x="-32" y="1557" type="line"/>
    </contour>
  </outline>
</glyph>
<glyph name="cedillacomb" format="2">
  <unicode hex="0327"/>
  <anchor x="0" y="0" name="_bottom"/>
  <anchor x="0" y="-383" name="bottom"/>
  <outline>
    <contour>
      <point x="78" y="-84" type="move"/>
      <point x="-19" y="-374" type="line"/>
    </contour>
  </outline>
</glyph>
<glyph name="ogonekcomb" format="2">
  <unicode hex="0328"/>
  <anchor x="64" y="0" name="_ogonek"/>
  <outline>
    <contour>
      <point x="-84" y="-292" type="move"/>
      <point x="84" y="110" type="line"/>
    </contour>
  </outline>
</glyph>
<glyph name="Delta" format="2">
  <advance width="1372"/>
  <unicode hex="0394"/>
  <outline>
    <contour>
      <point x="74" y="82" type="move"/>
      <point x="490" y="963" type="line"/>
    </contour>
    <contour>
      <point x="1148" y="339" type="move"/>
      <point x="682" y="1388" type="line"/>
    </contour>
    <contour>
      <point x="76" y="0" type="move"/>
      <point x="1296" y="0" type="line"/>
    </contour>
  </outline>
</glyph>
<glyph name="Omega" format="2">
  <advance width="1246"/>
  <unicode hex="03A9"/>
  <outline>
    <contour>
      <point x="76" y="4" type="move"/>
      <point x="1170" y="4" type="line"/>
    </contour>
    <contour>
      <point x="624" y="481" type="curve" smooth="yes"/>
      <point x="844" y="481"/>
      <point x="1023" y="660"/>
      <point x="1023" y="881" type="curve" smooth="yes"/>
      <point x="1023" y="1101"/>
      <point x="844" y="1280"/>
      <point x="624" y="1280" type="curve" smooth="yes"/>
      <point x="403" y="1280"/>
      <point x="224" y="1101"/>
      <point x="224" y="881" type="curve" smooth="yes"/>
      <point x="224" y="660"/>
      <point x="403" y="481"/>
    </contour>
  </outline>
</glyph>
<glyph name="pi" format="2">
  <advance width="1233"/>
  <unicode hex="03C0"/>
  <outline>
    <contour>
      <point x="347" y="645" type="move"/>
      <point x="347" y="6" type="line"/>
    </contour>
    <contour>
      <point x="130" y="1000" type="move"/>
      <point x="826" y="1000" type="line"/>
    </contour>
    <contour>
      <point x="946" y="940" type="move"/>
      <point x="946" y="277" type="line" smooth="yes"/>
      <point x="946" y="190"/>
      <point x="1016" y="120"/>
      <point x="1103" y="120" type="curve"/>
    </contour>
  </outline>
</glyph>
<glyph name="Germandbls" format="2">
  <advance width="1208"/>
  <unicode hex="1E9E"/>
  <unicode hex="00DF"/>
  <outline>
    <contour>
      <point x="185" y="1336" type="move"/>
      <point x="185" y="0" type="line"/>
    </contour>
    <contour>
      <point x="185" y="1340" type="move"/>
      <point x="1025" y="1340" type="line" smooth="yes"/>
    </contour>
    <contour>
      <point x="405" y="60" type="move"/>
      <point x="765" y="60" type="line" smooth="yes"/>
      <point x="942" y="60"/>
      <point x="1085" y="203"/>
      <point x="1085" y="380" type="curve" smooth="yes"/>
      <point x="1085" y="557"/>
      <point x="942" y="700"/>
      <point x="765" y="700" type="curve" smooth="yes"/>
      <point x="535" y="700" type="line"/>
    </contour>
    <contour>
      <point x="767" y="1044" type="move"/>
      <point x="997" y="1376" type="line"/>
    </contour>
  </outline>
</glyph>
<glyph name="dagger" format="2">
  <advance width="898"/>
  <unicode hex="2020"/>
  <outline>
    <contour>
      <point x="449" y="1394" type="move"/>
      <point x="449" y="539" type="line"/>
    </contour>
    <contour>
      <point x="767" y="1126" type="move"/>
      <point x="574" y="1126" type="line"/>
    </contour>
    <contour>
      <point x="324" y="1126" type="move"/>
      <point x="131" y="1126" type="line"/>
    </contour>
  </outline>
</glyph>
<glyph name="perthousand" format="2">
  <advance width="1995"/>
  <unicode hex="2030"/>
  <outline>
    <contour>
      <point x="260" y="16" type="move"/>
      <point x="1235" y="1384" type="line"/>
    </contour>
    <contour>
      <point x="475" y="1280" type="move"/>
      <point x="348" y="1280"/>
      <point x="245" y="1177"/>
      <point x="245" y="1050" type="curve" smooth="yes"/>
      <point x="245" y="923"/>
      <point x="348" y="820"/>
      <point x="475" y="820" type="curve"/>
    </contour>
    <contour>
      <point x="1020" y="120" type="move"/>
      <point x="1147" y="120"/>
      <point x="1250" y="223"/>
      <point x="1250" y="350" type="curve" smooth="yes"/>
      <point x="1250" y="477"/>
      <point x="1147" y="580"/>
      <point x="1020" y="580" type="curve"/>
    </contour>
    <contour>
      <point x="1520" y="120" type="move"/>
      <point x="1647" y="120"/>
      <point x="1750" y="223"/>
      <point x="1750" y="350" type="curve" smooth="yes"/>
      <point x="1750" y="477"/>
      <point x="1647" y="580"/>
      <point x="1520" y="580" type="curve"/>
    </contour>
  </outline>
</glyph>
<glyph name="guilsinglleft" format="2">
  <advance width="758"/>
  <unicode hex="2039"/>
  <outline>
    <contour>
      <point x="144" y="703" type="move"/>
      <point x="614" y="1107" type="line"/>
    </contour>
    <contour>
      <point x="303" y="556" type="move"/>
      <point x="614" y="293" type="line"/>
    </contour>
  </outline>
</glyph>
<glyph name="fraction" format="2">
  <advance width="346"/>
  <unicode hex="2044"/>
  <outline>
    <contour>
      <point x="-405" y="19" type="move"/>
      <point x="751" y="1381" type="line"/>
    </contour>
  </outline>
</glyph>
<glyph name="zerosuperior" format="2">
  <advance width="540"/>
  <unicode hex="2070"/>
  <outline>
    <contour>
      <point x="196" y="963" type="move"/>
      <point x="345" y="1062" type="line"/>
    </contour>
    <contour>
      <point x="384" y="1186" type="move"/>
      <point x="384" y="1249"/>
      <point x="333" y="1300"/>
      <point x="270" y="1300" type="curve" smooth="yes"/>
      <point x="207" y="1300"/>
      <point x="156" y="1249"/>
      <point x="156" y="1186" type="curve" smooth="yes"/>
      <point x="156" y="1122" type="line"/>
    </contour>
    <contour>
      <point x="156" y="838" type="move"/>
      <point x="156" y="775"/>
      <point x="207" y="724"/>
      <point x="270" y="724" type="curve" smooth="yes"/>
      <point x="333" y="724"/>
      <point x="384" y="775"/>
      <point x="384" y="838" type="curve" smooth="yes"/>
      <point x="384" y="903" type="line"/>
    </contour>
  </outline>
</glyph>
<glyph name="foursuperior" format="2">
  <advance width="540"/>
  <unicode hex="2074"/>
  <outline>
    <contour>
      <point x="107" y="829" type="move"/>
      <point x="268" y="829" type="line"/>
    </contour>
    <contour>
      <point x="418" y="629" type="move"/>
      <point x="418" y="1069" type="line"/>
    </contour>
    <contour>
      <point x="345" y="1390" type="move"/>
      <point x="103" y="829" type="line"/>
    </contour>
  </outline>
</glyph>
<glyph name="fivesuperior" format="2">
  <advance width="540"/>
  <unicode hex="2075"/>
  <outline>
    <contour>
      <point x="484" y="1400" type="move"/>
      <point x="64" y="1400" type="line"/>
    </contour>
    <contour>
      <point x="59" y="1353" type="move"/>
      <point x="59" y="1129" type="line"/>
    </contour>
    <contour>
      <point x="159" y="841" type="move"/>
      <point x="159" y="778"/>
      <point x="211" y="726"/>
      <point x="274" y="726" type="curve" smooth="yes"/>
      <point x="338" y="726"/>
      <point x="389" y="778"/>
      <point x="389" y="841" type="curve" smooth="yes"/>
      <point x="389" y="891" type="line" smooth="yes"/>
      <point x="389" y="955"/>
      <point x="338" y="1006"/>
      <point x="274" y="1006" type="curve" smooth="yes"/>
    </contour>
  </outline>
</glyph>
<glyph name="sixsuperior" format="2">
  <advance width="540"/>
  <unicode hex="2076"/>
  <outline>
    <contour>
      <point x="222" y="1152" type="move"/>
      <point x="347" y="1390" type="line"/>
    </contour>
    <contour>
      <point x="267" y="723" type="curve" smooth="yes"/>
      <point x="331" y="723"/>
      <point x="382" y="775"/>
      <point x="382" y="838" type="curve" smooth="yes"/>
      <point x="382" y="902"/>
      <point x="331" y="953"/>
      <point x="267" y="953" type="curve" smooth="yes"/>
      <point x="204" y="953"/>
      <point x="152" y="902"/>
      <point x="152" y="838" type="curve" smooth="yes"/>
      <point x="152" y="775"/>
      <point x="204" y="723"/>
    </contour>
  </outline>
</glyph>
<glyph name="sevensuperior" format="2">
  <advance width="540"/>
  <unicode hex="2077"/>
  <outline>
    <contour>
      <point x="83" y="1400" type="move"/>
      <point x="283" y="1400" type="line"/>
    </contour>
    <contour>
      <point x="438" y="1391" type="move"/>
      <point x="184" y="629" type="line"/>
    </contour>
  </outline>
</glyph>
<glyph name="eightsuperior" format="2">
  <advance width="540"/>
  <unicode hex="2078"/>
  <outline>
    <contour>
      <point x="125" y="869" type="move"/>
      <point x="125" y="949"/>
      <point x="190" y="1014"/>
      <point x="270" y="1014" type="curve" smooth="yes"/>
      <point x="350" y="1014"/>
      <point x="415" y="1079"/>
      <point x="415" y="1159" type="curve" smooth="yes"/>
    </contour>
    <contour>
      <point x="250" y="724" type="move"/>
      <point x="314" y="724"/>
      <point x="365" y="776"/>
      <point x="365" y="839" type="curve"/>
    </contour>
    <contour>
      <point x="250" y="724" type="move"/>
      <point x="314" y="724"/>
      <point x="365" y="776"/>
      <point x="365" y="839" type="curve"/>
    </contour>
    <contour>
      <point x="290" y="1304" type="move"/>
      <point x="226" y="1304"/>
      <point x="175" y="1252"/>
      <point x="175" y="1189" type="curve"/>
    </contour>
  </outline>
</glyph>
<glyph name="ninesuperior" format="2">
  <advance width="540"/>
  <unicode hex="2079"/>
  <outline>
    <contour>
      <point x="318" y="871" type="move"/>
      <point x="193" y="633" type="line"/>
    </contour>
    <contour>
      <point x="273" y="1300" type="curve" smooth="yes"/>
      <point x="209" y="1300"/>
      <point x="158" y="1248"/>
      <point x="158" y="1185" type="curve" smooth="yes"/>
      <point x="158" y="1121"/>
      <point x="209" y="1070"/>
      <point x="273" y="1070" type="curve" smooth="yes"/>
      <point x="336" y="1070"/>
      <point x="388" y="1121"/>
      <point x="388" y="1185" type="curve" smooth="yes"/>
      <point x="388" y="1248"/>
      <point x="336" y="1300"/>
    </contour>
  </outline>
</glyph>
<glyph name="euro" format="2">
  <advance width="1246"/>
  <unicode hex="20AC"/>
  <outline>
    <contour>
      <point x="435" y="991" type="move"/>
      <point x="435" y="1148"/>
      <point x="563" y="1276"/>
      <point x="720" y="1276" type="curve" smooth="yes"/>
      <point x="877" y="1276"/>
      <point x="1005" y="1148"/>
      <point x="1005" y="991" type="curve"/>
    </contour>
    <contour>
      <point x="567" y="814" type="move"/>
      <point x="185" y="814" type="line"/>
    </contour>
    <contour>
      <point x="567" y="587" type="move"/>
      <point x="185" y="587" type="line"/>
    </contour>
    <contour>
      <point x="1005" y="409" type="move"/>
      <point x="1005" y="252"/>
      <point x="877" y="124"/>
      <point x="720" y="124" type="curve" smooth="yes"/>
      <point x="563" y="124"/>
      <point x="435" y="252"/>
      <point x="435" y="409" type="curve"/>
    </contour>
  </outline>
</glyph>
<glyph name="trademark" format="2">
  <advance width="1484"/>
  <unicode hex="2122"/>
  <outline>
    <contour>
      <point x="392" y="738" type="move"/>
      <point x="392" y="1344" type="line"/>
    </contour>
    <contour>
      <point x="446" y="1400" type="move"/>
      <point x="131" y="1400" type="line"/>
    </contour>
    <contour>
      <point x="653" y="1400" type="move"/>
      <point x="504" y="1400" type="line"/>
    </contour>
    <contour>
      <point x="732" y="738" type="move"/>
      <point x="732" y="1397" type="line"/>
    </contour>
    <contour>
      <point x="1359" y="738" type="move"/>
      <point x="1359" y="1397" type="line"/>
    </contour>
    <contour>
      <point x="756" y="1383" type="move"/>
      <point x="1045" y="1066" type="line"/>
    </contour>
  </outline>
</glyph>
<glyph name="partialdiff" format="2">
  <advance width="1046"/>
  <unicode hex="2202"/>
  <outline>
    <contour>
      <point x="525" y="1340" type="move"/>
      <point x="694" y="1067" type="line"/>
    </contour>
    <contour>
      <point x="523" y="120" type="curve" smooth="yes"/>
      <point x="696" y="120"/>
      <point x="836" y="260"/>
      <point x="836" y="433" type="curve" smooth="yes"/>
      <point x="836" y="607"/>
      <point x="696" y="747"/>
      <point x="523" y="747" type="curve" smooth="yes"/>
      <point x="350" y="747"/>
      <point x="210" y="607"/>
      <point x="210" y="433" type="curve" smooth="yes"/>
      <point x="210" y="260"/>
      <point x="350" y="120"/>
    </contour>
  </outline>
</glyph>
<glyph name="product" format="2">
  <advance width="1326"/>
  <unicode hex="220F"/>
  <outline>
    <contour>
      <point x="1141" y="60" type="move"/>
      <point x="1141" y="1340" type="line"/>
    </contour>
    <contour>
      <point x="185" y="1045" type="move"/>
      <point x="185" y="6" type="line"/>
    </contour>
    <contour>
      <point x="185" y="1340" type="move"/>
      <point x="1081" y="1340" type="line"/>
    </contour>
  </outline>
</glyph>
<glyph name="summation" format="2">
  <advance width="1311"/>
  <unicode hex="2211"/>
  <outline>
    <contour>
      <point x="155" y="1375" type="move"/>
      <point x="685" y="681" type="line"/>
    </contour>
    <contour>
      <point x="131" y="4" type="move"/>
      <point x="1225" y="4" type="line"/>
    </contour>
    <contour>
      <point x="131" y="1396" type="move"/>
      <point x="1225" y="1396" type="line"/>
    </contour>
  </outline>
</glyph>
<glyph name="minus" format="2">
  <advance width="1007"/>
  <unicode hex="2212"/>
  <outline>
    <contour>
      <point x="941" y="701" type="move"/>
      <point x="66" y="701" type="line"/>
    </contour>
  </outline>
</glyph>
<glyph name="radical" format="2">
  <advance width="1623"/>
  <unicode hex="221A"/>
  <outline>
    <contour>
      <point x="439" y="12" type="move"/>
      <point x="160" y="544" type="line"/>
    </contour>
    <contour>
      <point x="698" y="956" type="move"/>
      <point x="399" y="12" type="line"/>
    </contour>
    <contour>
      <point x="766" y="1400" type="move"/>
      <point x="1492" y="1400" type="line"/>
    </contour>
  </outline>
</glyph>
<glyph name="infinity" format="2">
  <advance width="2012"/>
  <unicode hex="221E"/>
  <outline>
    <contour>
      <point x="1431" y="275" type="move"/>
      <point x="1196" y="275"/>
      <point x="1006" y="466"/>
      <point x="1006" y="700" type="curve" smooth="yes"/>
      <point x="1006" y="934"/>
      <point x="816" y="1125"/>
      <point x="581" y="1125" type="curve" smooth="yes"/>
    </contour>
    <contour>
      <point x="245" y="703" type="move"/>
      <point x="245" y="517"/>
      <point x="396" y="366"/>
      <point x="581" y="366" type="curve"/>
    </contour>
    <contour>
      <point x="1767" y="703" type="move"/>
      <point x="1767" y="889"/>
      <point x="1616" y="1040"/>
      <point x="1431" y="1040" type="curve"/>
    </contour>
  </outline>
</glyph>
<glyph name="integral" format="2">
  <advance width="946"/>
  <unicode hex="222B"/>
  <outline>
    <contour>
      <point x="761" y="1480" type="move"/>
      <point x="635" y="1480"/>
      <point x="533" y="1378"/>
      <point x="533" y="1252" type="curve" smooth="yes"/>
      <point x="533" y="888" type="line"/>
    </contour>
    <contour>
      <point x="185" y="-80" type="move"/>
      <point x="311" y="-80"/>
      <point x="413" y="22"/>
      <point x="413" y="148" type="curve" smooth="yes"/>
      <point x="413" y="512" type="line"/>
    </contour>
  </outline>
</glyph>
<glyph name="approxequal" format="2">
  <advance width="1007"/>
  <unicode hex="2248"/>
  <outline>
    <contour>
      <point x="120" y="853" type="move"/>
      <point x="219" y="1000"/>
      <point x="357" y="996"/>
      <point x="503" y="900" type="curve" smooth="yes"/>
      <point x="648" y="804"/>
      <point x="787" y="800"/>
      <point x="887" y="947" type="curve"/>
    </contour>
    <contour>
      <point x="120" y="453" type="move"/>
      <point x="219" y="600"/>
      <point x="357" y="596"/>
      <point x="503" y="500" type="curve" smooth="yes"/>
      <point x="648" y="404"/>
      <point x="787" y="400"/>
      <point x="887" y="547" type="curve"/>
    </contour>
  </outline>
</glyph>
<glyph name="notequal" format="2">
  <advance width="1007"/>
  <unicode hex="2260"/>
  <outline>
    <contour>
      <point x="808" y="1324" type="move"/>
      <point x="199" y="76" type="line"/>
    </contour>
    <contour>
      <point x="66" y="944" type="move"/>
      <point x="446" y="944" type="line"/>
    </contour>
    <contour>
      <point x="796" y="944" type="move"/>
      <point x="941" y="944" type="line"/>
    </contour>
    <contour>
      <point x="941" y="455" type="move"/>
      <point x="561" y="455" type="line"/>
    </contour>
    <contour>
      <point x="211" y="455" type="move"/>
      <point x="66" y="455" type="line"/>
    </contour>
  </outline>
</glyph>
<glyph name="lessequal" format="2">
  <advance width="1295"/>
  <unicode hex="2264"/>
  <outline>
    <contour>
      <point x="1161" y="1191" type="move"/>
      <point x="134" y="822" type="line"/>
    </contour>
    <contour>
      <point x="1161" y="447" type="move"/>
      <point x="639" y="632" type="line"/>
    </contour>
    <contour>
      <point x="134" y="209" type="move"/>
      <point x="1164" y="209" type="line"/>
    </contour>
  </outline>
</glyph>
<glyph name="greaterequal" format="2">
  <advance width="1295"/>
  <unicode hex="2265"/>
  <outline>
    <contour>
      <point x="134" y="447" type="move"/>
      <point x="1161" y="816" type="line"/>
    </contour>
    <contour>
      <point x="134" y="1191" type="move"/>
      <point x="656" y="1006" type="line"/>
    </contour>
    <contour>
      <point x="131" y="209" type="move"/>
      <point x="1161" y="209" type="line"/>
    </contour>
  </outline>
</glyph>
<glyph name="lozenge" format="2">
  <advance width="1101"/>
  <unicode hex="25CA"/>
  <outline>
    <contour>
      <point x="581" y="1386" type="move"/>
      <point x="157" y="698" type="line"/>
    </contour>
    <contour>
      <point x="552" y="1341" type="move"/>
      <point x="823" y="881" type="line"/>
    </contour>
    <contour>
      <point x="520" y="14" type="move"/>
      <point x="944" y="702" type="line"/>
    </contour>
    <contour>
      <point x="548" y="59" type="move"/>
      <point x="278" y="519" type="line"/>
    </contour>
  </outline>
</glyph>
<glyph name="fi" format="2">
  <advance width="1409"/>
  <unicode hex="FB01"/>
  <anchor x="545" y="0" name="bottom_1"/>
  <anchor x="1224" y="0" name="bottom_2"/>
  <anchor x="1224" y="0" name="ogonek_2"/>
  <anchor x="565" y="1400" name="top_1"/>
  <anchor x="1224" y="1400" name="top_2"/>
  <anchor x="1084" y="1400" name="topleft_2"/>
  <outline>
    <contour>
      <point x="185" y="60" type="move"/>
      <point x="185" y="640" type="line"/>
    </contour>
    <contour>
      <point x="1268" y="1340" type="move"/>
      <point x="185" y="1340" type="line"/>
    </contour>
    <contour>
      <point x="185" y="700" type="move"/>
      <point x="908" y="700" type="line"/>
    </contour>
    <contour>
      <point x="1224" y="500" type="move"/>
      <point x="1224" y="6" type="line"/>
    </contour>
    <contour>
      <point x="1224" y="1394" type="move"/>
      <point x="1224" y="900" type="line"/>
    </contour>
  </outline>
</glyph>
<glyph name="fl" format="2">
  <advance width="2261"/>
  <unicode hex="FB02"/>
  <anchor x="545" y="0" name="bottom_1"/>
  <anchor x="1658" y="0" name="bottom_2"/>
  <anchor x="1658" y="700" name="center_2"/>
  <anchor x="565" y="1400" name="top_1"/>
  <anchor x="1230" y="1400" name="top_2"/>
  <anchor x="2231" y="1400" name="topright_2"/>
  <outline>
    <contour>
      <point x="185" y="60" type="move"/>
      <point x="185" y="640" type="line"/>
    </contour>
    <contour>
      <point x="1229" y="1340" type="move"/>
      <point x="185" y="1340" type="line"/>
    </contour>
    <contour>
      <point x="185" y="700" type="move"/>
      <point x="908" y="700" type="line"/>
    </contour>
    <contour>
      <point x="1170" y="4" type="move"/>
      <point x="2185" y="4" type="line"/>
    </contour>
    <contour>
      <point x="1170" y="1394" type="move"/>
      <point x="1170" y="402" type="line"/>
    </contour>
  </outline>
</glyph>
<glyph name=".notdef" format="2">
  <advance width="1581"/>
  <outline>
    <contour>
      <point x="1012" y="1236" type="move"/>
      <point x="864" y="1297"/>
      <point x="706" y="1293"/>
      <point x="569" y="1237" type="curve"/>
    </contour>
    <contour>
      <point x="112" y="1378" type="move"/>
      <point x="1430" y="60" type="line"/>
    </contour>
    <contour>
      <point x="1469" y="1378" type="move"/>
      <point x="961" y="870" type="line"/>
    </contour>
    <contour>
      <point x="569" y="163" type="move"/>
      <point x="706" y="107"/>
      <point x="864" y="103"/>
      <point x="1012" y="164" type="curve"/>
    </contour>
    <contour>
      <point x="254" y="922" type="move"/>
      <point x="198" y="785"/>
      <point x="194" y="627"/>
      <point x="255" y="479" type="curve"/>
    </contour>
    <contour>
      <point x="1327" y="922" type="move"/>
      <point x="1383" y="785"/>
      <point x="1387" y="627"/>
      <point x="1326" y="479" type="curve"/>
    </contour>
    <contour>
      <point x="620" y="530" type="move"/>
      <point x="112" y="22" type="line"/>
    </contour>
  </outline>
</glyph>
